Negadon.The.Monster.From.Mars.2005.XviD-NvadR 
http://www.imdb.com/title/tt0488320/

Negadon is quite an achievement, visually fascinating, and 
a modern treat for lovers of giant monsters and 'old school' 
Japanese sci-fi films.
I'll warn you that the running time is a brief 25 minutes, 
but the quality of the film is outstanding - full-length 
monster movies would have had the same amount of special 
effects and padded it out with inane subplots anyway.[/b]

--------------- SCREENSHOTS ---------------- 
http://www.postimg.com/41000/photo-40560.jpg
 
http://www.postimg.com/41000/photo-40561.jpg
 
http://www.postimg.com/41000/photo-40563.jpg
 
http://www.postimg.com/41000/photo-40564.jpg
-------------------------------------------- 

   General

      Negadon.The.Monster.From.Mars.2005.XviD-NvadR.avi
      Format : AVI
      Format/Info : Audio Video Interleave
      File size : 499 MiB
      Duration : 27mn 23s
      Overall bit rate : 2 548 Kbps
      Writing application : VirtualDubMod 1.5.10.2 (build 2542/release)
      Writing library : VirtualDubMod build 2542/release

   Video 

      Format : MPEG-4 Visual
      Format profile : AdvancedSimple@L5
      Format settings, BVOP : Yes
      Format settings, QPel : No
      Format settings, GMC : No warppoints
      Format settings, Matrix : Default (H.263)
      Muxing mode : Packed bitstream
      Codec ID : XVID
      Codec ID/Hint : XviD
      Duration : 27mn 23s
      Bit rate : 2 411 Kbps
      Width : 720 pixels
      Height : 304 pixels
      Display aspect ratio : 2.35:1
      Frame rate : 23.976 fps
      Resolution : 24 bits
      Colorimetry : 4:2:0
      Scan type : Progressive
      Bits/(Pixel*Frame) : 0.459
      Stream size : 472 MiB (95%)
      Writing library : XviD 1.2.1 (UTC 2008-12-04)

   Audio 

      Language : English
      Subtitles : English Hardcoded (Japanese text translations only)
      Other Subs : None
      Format : AC-3
      Format/Info : Audio Coding 3
      Codec ID : 2000
      Duration : 27mn 23s
      Bit rate mode : Constant
      Bit rate : 128 Kbps
      Channel(s) : 2 channels
      Channel positions : L R
      Sampling rate : 48.0 KHz
      Stream size : 25.1 MiB (5%)
      Alignment : Aligned on interleaves
      Interleave, duration : 42 ms (1.00 video frame)
      Interleave, preload duration : 512 ms

   Source
  
      Region 1 DVD (NTSC) 720x480 1:778 (16x9)
      192 kb/s AC-3 48000Hz 2 Channel

   Encoder Note

      Changed Aspect Ratio back to Japanese Original ratio of 2.35:1
      black bars removed.